<svg width="24" height="24" viewBox="0 0 24 24" fill="none" xmlns="http://www.w3.org/2000/svg">
<path fill-rule="evenodd" clip-rule="evenodd" d="M2 2H22C22.5128 2 22.9355 2.38604 22.9933 2.88338L23 3V9C23 9.51284 22.614 9.93551 22.1166 9.99327L22 10V21C22 21.5523 21.5523 22 21 22H3C2.44772 22 2 21.5523 2 21V10C1.48716 10 1.06449 9.61396 1.00673 9.11662L1 9V3C1 2.48716 1.38604 2.06449 1.88338 2.00673L2 2H22H2ZM20 10H4V20H7V15C7 14.4477 7.44772 14 8 14H16C16.5523 14 17 14.4477 17 15V20H20V10ZM11 16H9V20H11V16ZM15 16H13V20H15V16ZM12.6419 4.08378C11.3004 4.08378 10.6054 5.21059 10.6054 6.31921C10.6054 7.50437 11.381 7.90436 12.1758 7.90436C12.4611 7.90436 12.6493 7.87326 12.8278 7.80487C13.02 7.73618 13.0722 7.57292 13.0822 7.53317L13.0843 7.52434L13.2168 6.91536C12.8786 7.16887 12.6279 7.20821 12.3984 7.20821C11.8411 7.20821 11.5162 6.84263 11.5162 6.27086C11.5162 5.68125 11.8906 4.801 12.7482 4.801C12.972 4.801 13.3746 4.86039 13.6057 5.07142C13.6057 5.07142 13.6924 4.77152 13.7172 4.64672C13.7416 4.5248 13.697 4.32141 13.3295 4.20026C13.0912 4.12168 12.9052 4.08378 12.6419 4.08378ZM15.3335 4.16022C15.016 4.1575 14.7332 4.16669 14.4661 4.20984L14.2684 4.24892L13.4813 7.8712H13.9777C14.1047 7.8712 14.3443 7.82039 14.4261 7.44785C14.491 7.15109 14.6001 6.64746 14.6001 6.64746C14.6853 6.65324 14.8033 6.66912 14.9405 6.66912C16.2803 6.66912 16.7462 5.78921 16.7462 5.19119C16.7462 4.53854 16.3022 4.16413 15.3335 4.16022ZM8.97405 4.1415C8.68913 4.1415 8.40986 4.16004 8.1489 4.19221L7.89452 4.22875L7.2952 6.94597C7.2952 6.94597 7.08801 7.64815 7.67702 7.79461C7.84233 7.83565 7.95494 7.85094 8.1382 7.86139C9.70194 7.94975 10.1541 7.23185 10.1541 6.68769C10.1541 6.14685 9.78056 5.91075 9.47779 5.8879C9.85985 5.82282 10.3646 5.53566 10.3646 5.00731C10.3646 4.44301 9.8104 4.1415 8.97405 4.1415ZM18.061 4.4274C18.4601 4.61091 18.4282 5.58682 18.0629 6.08434C17.7256 6.66358 16.784 7.11131 16.7925 7.09687C16.8364 7.18395 16.8584 7.20918 16.9491 7.32855C16.9772 7.36899 17.3062 7.75453 17.7923 7.54664C18.0422 7.45641 18.9242 6.85474 19.2475 6.32689C19.5427 5.8445 19.2221 5.43653 19.1951 5.39907C19.1999 5.4028 18.9786 5.11191 18.7226 4.89008C18.466 4.65636 18.1817 4.4895 18.061 4.4274ZM5.76859 4.4274C6.1676 4.61091 6.13577 5.58682 5.77041 6.08434C5.43315 6.66358 4.4915 7.11131 4.50006 7.09687C4.54394 7.18395 4.56597 7.20918 4.65664 7.32855C4.68473 7.36899 5.01377 7.75453 5.4998 7.54664C5.74972 7.45641 6.63178 6.85474 6.955 6.32689C7.25029 5.8445 6.92965 5.43653 6.90264 5.39907C6.90746 5.4028 6.68613 5.11191 6.43015 4.89008C6.17359 4.65636 5.88926 4.4895 5.76859 4.4274ZM8.31082 6.19443H8.5831C8.96898 6.19443 9.28921 6.30402 9.28073 6.66764C9.27151 7.07791 8.86002 7.24494 8.41022 7.24494C8.33975 7.24494 8.27268 7.24494 8.20959 7.2429C8.10564 7.23348 8.10811 7.1371 8.11182 7.10523L8.11335 7.09507L8.31082 6.19443H8.5831H8.31082ZM15.4018 4.78084C15.713 4.78084 15.9715 4.87489 15.9715 5.25729C15.9715 5.64597 15.6822 6.0214 15.1191 6.02582C15.0819 6.02582 15.0482 6.02488 15.0171 6.02353C14.7932 6.02353 14.824 5.85389 14.8337 5.8162L14.8357 5.80884L15.0546 4.79885C15.1236 4.78849 15.2429 4.78084 15.4018 4.78084ZM17.2534 4.71785C17.2534 4.71785 17.1395 4.85999 17.0529 5.05896C17.1123 5.09209 17.2261 5.14978 17.2261 5.14978C17.4596 5.2643 17.7759 5.46523 18.0758 5.79759C18.2837 5.27985 18.2499 4.57988 17.9183 4.42738C17.6147 4.28176 17.2695 4.69636 17.2534 4.71785ZM4.96096 4.71785C4.96096 4.71785 4.84702 4.85999 4.76042 5.05896C4.79607 5.07884 4.85129 5.10756 4.88977 5.12735L4.93362 5.14978C5.16716 5.2643 5.48348 5.46523 5.78335 5.79759C5.99121 5.27985 5.95747 4.57988 5.62585 4.42738C5.32225 4.28176 4.97709 4.69636 4.96096 4.71785ZM8.98469 4.75235C9.30051 4.75235 9.52292 4.86543 9.51652 5.12642C9.50934 5.41404 9.24898 5.58862 8.86083 5.61798L8.74068 5.6224H8.56431C8.45758 5.6224 8.46588 5.51833 8.47162 5.48364L8.47381 5.47254L8.62498 4.77248C8.68873 4.76229 8.84033 4.75235 8.98469 4.75235Z" fill="#202E44"/>
</svg>
